<svg width="1929" height="661" viewBox="0 0 1929 661" fill="none" xmlns="http://www.w3.org/2000/svg">
<path d="M430.549 647.134H0V43.1257H422.788V136.323H102.694V291.639H392.597V382.249H102.694V553.937H430.584V647.134H430.549ZM662.939 660.068C554.221 660.068 491.215 591.889 491.215 492.668V189.831H593.023V488.38C593.023 540.153 629.274 570.344 683.633 570.344C753.513 570.344 794.938 524.632 795.789 465.949V189.831H897.597V647.134H815.633L807.872 580.691C781.118 629.877 726.759 660.068 662.939 660.068ZM1087.46 647.134H985.655V0H1087.46V647.134ZM1387.04 660.068C1247.28 660.068 1151.5 559.997 1151.5 420.201C1151.5 269.208 1250.72 176.011 1378.43 176.011C1506.14 176.011 1594.13 266.621 1596.72 415.028V439.195H1253.3C1260.21 519.422 1310.25 573.781 1387.89 573.781C1440.51 573.781 1480.2 547.913 1495.76 502.165H1594.98C1571.7 600.536 1494.91 660.068 1387.04 660.068ZM1257.63 367.579H1491.47C1478.54 301.987 1437.96 262.298 1378.43 262.298C1318.9 262.298 1273.18 301.987 1257.63 367.579ZM1760.75 647.134H1658.94V189.831H1740.91L1752.99 279.555C1782.33 217.436 1835.84 184.658 1911.74 184.658H1929V283.879H1911.74C1816.84 283.879 1760.75 334.8 1760.75 421.052V647.099V647.134Z" fill="white" style="fill:white;fill:white;fill-opacity:1;"/>
</svg>
